<?xml version="1.0" encoding="UTF-8"?>
<svg width="96px" height="31px" viewBox="0 0 96 31" version="1.1" xmlns="http://www.w3.org/2000/svg" xmlns:xlink="http://www.w3.org/1999/xlink">
    <title>Logo Shopping Cart</title>
    <g id="⚙️-Symbols" stroke="none" stroke-width="1" fill="none" fill-rule="evenodd">
        <g id="Navigation-Bar/Modile" transform="translate(-24, -13)">
            <g id="Logo-Shopping-Cart" transform="translate(24, 15.535)">
                <g id="logo" transform="translate(-0, 0.465)">
                    <rect id="Rectangle" fill="#29C768" x="0" y="0" width="24" height="24" rx="4"></rect>
                    <g id="logo-teardrop" transform="translate(6, 4)" fill-rule="nonzero">
                        <path d="M7.62204383,0.485297825 C10.1478089,1.69710982 11.2757935,4.79708292 10.5357725,7.58648755 C9.64045483,10.9614506 6.97440038,13.6688699 4.76189643,16.1087958 C4.72298891,14.0743938 4.06089408,12.3253341 2.700576,10.8996939 C1.52312327,9.66574941 0.530648004,8.85255981 0.133680131,7.01235235 C-0.840564181,2.49518749 3.69894297,-1.39691369 7.62204383,0.485297825" id="teardrop" fill="#FFFFFF"></path>
                        <polygon id="blue" fill="#007AFF" points="6.89335013 8.52847384 8.74445863 8.52847384 8.74445863 3.19383567 6.89335013 3.19383567"></polygon>
                        <polygon id="yellow" fill="#F39C12" points="4.47263563 8.52847384 6.32374413 8.52847384 6.32374413 2.27938405 4.47263563 2.27938405"></polygon>
                        <polygon id="red" fill="#F2256C" points="2.05203188 8.52847384 3.90314063 8.52847384 3.90314063 3.8035494 2.05203188 3.8035494"></polygon>
                    </g>
                </g>
                <g id="Shopping-Cart" transform="translate(32.57, -0)" fill="#1F1F00" fill-rule="nonzero">
                    <path d="M6.24,3.21 C6.21,3.02 6.145,2.8175 6.045,2.6025 C5.945,2.3875 5.805,2.19 5.625,2.01 C5.445,1.83 5.22,1.6825 4.95,1.5675 C4.68,1.4525 4.36,1.395 3.99,1.395 C3.69,1.395 3.415,1.44 3.165,1.53 C2.915,1.62 2.6975,1.745 2.5125,1.905 C2.3275,2.065 2.185,2.2525 2.085,2.4675 C1.985,2.6825 1.935,2.915 1.935,3.165 C1.935,3.545 2.05,3.8725 2.28,4.1475 C2.51,4.4225 2.85,4.61 3.3,4.71 L4.89,5.055 C5.78,5.255 6.4625,5.615 6.9375,6.135 C7.4125,6.655 7.65,7.29 7.65,8.04 C7.65,8.45 7.565,8.845 7.395,9.225 C7.225,9.605 6.98,9.94 6.66,10.23 C6.34,10.52 5.955,10.7525 5.505,10.9275 C5.055,11.1025 4.545,11.19 3.975,11.19 C3.335,11.19 2.7775,11.095 2.3025,10.905 C1.8275,10.715 1.4275,10.47 1.1025,10.17 C0.7775,9.87 0.525,9.5325 0.345,9.1575 C0.165,8.7825 0.05,8.405 0,8.025 L1.41,7.575 C1.44,7.875 1.5125,8.1625 1.6275,8.4375 C1.7425,8.7125 1.9075,8.955 2.1225,9.165 C2.3375,9.375 2.5975,9.5425 2.9025,9.6675 C3.2075,9.7925 3.56,9.855 3.96,9.855 C4.69,9.855 5.2375,9.69 5.6025,9.36 C5.9675,9.03 6.15,8.63 6.15,8.16 C6.15,7.78 6.02,7.4375 5.76,7.1325 C5.5,6.8275 5.1,6.62 4.56,6.51 L3.045,6.18 C2.285,6.01 1.6625,5.6825 1.1775,5.1975 C0.6925,4.7125 0.45,4.07 0.45,3.27 C0.45,2.85 0.54,2.45 0.72,2.07 C0.9,1.69 1.1475,1.355 1.4625,1.065 C1.7775,0.775 2.15,0.5425 2.58,0.3675 C3.01,0.1925 3.47,0.105 3.96,0.105 C4.56,0.105 5.0725,0.1875 5.4975,0.3525 C5.9225,0.5175 6.2775,0.73 6.5625,0.99 C6.8475,1.25 7.07,1.535 7.23,1.845 C7.39,2.155 7.5,2.455 7.56,2.745 L6.24,3.21 Z" id="Path"></path>
                    <path d="M10.86,10.965 L9.45,10.965 L9.45,0.105 L10.86,0.105 L10.86,4.59 C11.12,4.21 11.445,3.94 11.835,3.78 C12.225,3.62 12.63,3.54 13.05,3.54 C13.48,3.54 13.8575,3.6125 14.1825,3.7575 C14.5075,3.9025 14.7775,4.1025 14.9925,4.3575 C15.2075,4.6125 15.3675,4.915 15.4725,5.265 C15.5775,5.615 15.63,5.99 15.63,6.39 L15.63,10.965 L14.22,10.965 L14.22,6.63 C14.22,6.38 14.1925,6.145 14.1375,5.925 C14.0825,5.705 13.9875,5.5125 13.8525,5.3475 C13.7175,5.1825 13.5425,5.0525 13.3275,4.9575 C13.1125,4.8625 12.85,4.815 12.54,4.815 C12.27,4.815 12.0325,4.865 11.8275,4.965 C11.6225,5.065 11.45,5.2 11.31,5.37 C11.17,5.54 11.0625,5.74 10.9875,5.97 C10.9125,6.2 10.87,6.45 10.86,6.72 L10.86,10.965 Z" id="Path"></path>
                    <path d="M20.97,9.93 C21.27,9.93 21.555,9.875 21.825,9.765 C22.095,9.655 22.335,9.49 22.545,9.27 C22.755,9.05 22.92,8.78 23.04,8.46 C23.16,8.14 23.22,7.77 23.22,7.35 C23.22,6.93 23.16,6.5625 23.04,6.2475 C22.92,5.9325 22.755,5.665 22.545,5.445 C22.335,5.225 22.095,5.06 21.825,4.95 C21.555,4.84 21.27,4.785 20.97,4.785 C20.67,4.785 20.385,4.84 20.115,4.95 C19.845,5.06 19.605,5.225 19.395,5.445 C19.185,5.665 19.02,5.9325 18.9,6.2475 C18.78,6.5625 18.72,6.93 18.72,7.35 C18.72,7.77 18.78,8.14 18.9,8.46 C19.02,8.78 19.185,9.05 19.395,9.27 C19.605,9.49 19.845,9.655 20.115,9.765 C20.385,9.875 20.67,9.93 20.97,9.93 Z M20.97,3.525 C21.51,3.525 22.005,3.6225 22.455,3.8175 C22.905,4.0125 23.295,4.28 23.625,4.62 C23.955,4.96 24.21,5.3625 24.39,5.8275 C24.57,6.2925 24.66,6.8 24.66,7.35 C24.66,7.9 24.57,8.41 24.39,8.88 C24.21,9.35 23.955,9.755 23.625,10.095 C23.295,10.435 22.905,10.7025 22.455,10.8975 C22.005,11.0925 21.51,11.19 20.97,11.19 C20.43,11.19 19.935,11.0925 19.485,10.8975 C19.035,10.7025 18.645,10.435 18.315,10.095 C17.985,9.755 17.73,9.35 17.55,8.88 C17.37,8.41 17.28,7.9 17.28,7.35 C17.28,6.8 17.37,6.2925 17.55,5.8275 C17.73,5.3625 17.985,4.96 18.315,4.62 C18.645,4.28 19.035,4.0125 19.485,3.8175 C19.935,3.6225 20.43,3.525 20.97,3.525 Z" id="Shape"></path>
                    <path d="M26.46,13.815 L26.46,3.75 L27.825,3.75 L27.825,4.875 C28.025,4.515 28.33,4.21 28.74,3.96 C29.15,3.71 29.65,3.585 30.24,3.585 C30.78,3.585 31.2575,3.6825 31.6725,3.8775 C32.0875,4.0725 32.4325,4.34 32.7075,4.68 C32.9825,5.02 33.1925,5.42 33.3375,5.88 C33.4825,6.34 33.555,6.83 33.555,7.35 C33.555,7.89 33.48,8.39 33.33,8.85 C33.18,9.31 32.96,9.7125 32.67,10.0575 C32.38,10.4025 32.0275,10.6725 31.6125,10.8675 C31.1975,11.0625 30.725,11.16 30.195,11.16 C29.635,11.16 29.155,11.045 28.755,10.815 C28.355,10.585 28.055,10.31 27.855,9.99 L27.855,13.815 L26.46,13.815 Z M32.115,7.35 C32.115,6.99 32.065,6.6575 31.965,6.3525 C31.865,6.0475 31.725,5.7825 31.545,5.5575 C31.365,5.3325 31.1425,5.155 30.8775,5.025 C30.6125,4.895 30.315,4.83 29.985,4.83 C29.665,4.83 29.3725,4.895 29.1075,5.025 C28.8425,5.155 28.615,5.3325 28.425,5.5575 C28.235,5.7825 28.09,6.0475 27.99,6.3525 C27.89,6.6575 27.84,6.99 27.84,7.35 C27.84,7.72 27.89,8.0625 27.99,8.3775 C28.09,8.6925 28.235,8.9625 28.425,9.1875 C28.615,9.4125 28.8425,9.5875 29.1075,9.7125 C29.3725,9.8375 29.665,9.9 29.985,9.9 C30.315,9.9 30.61,9.8375 30.87,9.7125 C31.13,9.5875 31.3525,9.4125 31.5375,9.1875 C31.7225,8.9625 31.865,8.6925 31.965,8.3775 C32.065,8.0625 32.115,7.72 32.115,7.35 Z" id="Shape"></path>
                    <path d="M35.355,13.815 L35.355,3.75 L36.72,3.75 L36.72,4.875 C36.92,4.515 37.225,4.21 37.635,3.96 C38.045,3.71 38.545,3.585 39.135,3.585 C39.675,3.585 40.1525,3.6825 40.5675,3.8775 C40.9825,4.0725 41.3275,4.34 41.6025,4.68 C41.8775,5.02 42.0875,5.42 42.2325,5.88 C42.3775,6.34 42.45,6.83 42.45,7.35 C42.45,7.89 42.375,8.39 42.225,8.85 C42.075,9.31 41.855,9.7125 41.565,10.0575 C41.275,10.4025 40.9225,10.6725 40.5075,10.8675 C40.0925,11.0625 39.62,11.16 39.09,11.16 C38.53,11.16 38.05,11.045 37.65,10.815 C37.25,10.585 36.95,10.31 36.75,9.99 L36.75,13.815 L35.355,13.815 Z M41.01,7.35 C41.01,6.99 40.96,6.6575 40.86,6.3525 C40.76,6.0475 40.62,5.7825 40.44,5.5575 C40.26,5.3325 40.0375,5.155 39.7725,5.025 C39.5075,4.895 39.21,4.83 38.88,4.83 C38.56,4.83 38.2675,4.895 38.0025,5.025 C37.7375,5.155 37.51,5.3325 37.32,5.5575 C37.13,5.7825 36.985,6.0475 36.885,6.3525 C36.785,6.6575 36.735,6.99 36.735,7.35 C36.735,7.72 36.785,8.0625 36.885,8.3775 C36.985,8.6925 37.13,8.9625 37.32,9.1875 C37.51,9.4125 37.7375,9.5875 38.0025,9.7125 C38.2675,9.8375 38.56,9.9 38.88,9.9 C39.21,9.9 39.505,9.8375 39.765,9.7125 C40.025,9.5875 40.2475,9.4125 40.4325,9.1875 C40.6175,8.9625 40.76,8.6925 40.86,8.3775 C40.96,8.0625 41.01,7.72 41.01,7.35 Z" id="Shape"></path>
                    <path d="M44.25,10.965 L44.25,3.75 L45.645,3.75 L45.645,10.965 L44.25,10.965 Z M43.935,1.02 C43.935,0.73 44.0325,0.4875 44.2275,0.2925 C44.4225,0.0975 44.66,0 44.94,0 C45.23,0 45.4725,0.0975 45.6675,0.2925 C45.8625,0.4875 45.96,0.73 45.96,1.02 C45.96,1.3 45.8625,1.5375 45.6675,1.7325 C45.4725,1.9275 45.23,2.025 44.94,2.025 C44.66,2.025 44.4225,1.9275 44.2275,1.7325 C44.0325,1.5375 43.935,1.3 43.935,1.02 Z" id="Shape"></path>
                    <path d="M49.455,10.965 L48.045,10.965 L48.045,3.75 L49.425,3.75 L49.425,4.785 C49.685,4.335 50.015,4.015 50.415,3.825 C50.815,3.635 51.225,3.54 51.645,3.54 C52.075,3.54 52.4525,3.6125 52.7775,3.7575 C53.1025,3.9025 53.3725,4.1025 53.5875,4.3575 C53.8025,4.6125 53.9625,4.915 54.0675,5.265 C54.1725,5.615 54.225,5.99 54.225,6.39 L54.225,10.965 L52.815,10.965 L52.815,6.63 C52.815,6.38 52.7875,6.145 52.7325,5.925 C52.6775,5.705 52.5825,5.5125 52.4475,5.3475 C52.3125,5.1825 52.1375,5.0525 51.9225,4.9575 C51.7075,4.8625 51.445,4.815 51.135,4.815 C50.855,4.815 50.61,4.8675 50.4,4.9725 C50.19,5.0775 50.015,5.22 49.875,5.4 C49.735,5.58 49.63,5.79 49.56,6.03 C49.49,6.27 49.455,6.525 49.455,6.795 L49.455,10.965 Z" id="Path"></path>
                    <path d="M57.315,11.04 C57.365,11.55 57.5675,11.9725 57.9225,12.3075 C58.2775,12.6425 58.73,12.81 59.28,12.81 C60.04,12.81 60.5975,12.615 60.9525,12.225 C61.3075,11.835 61.485,11.25 61.485,10.47 L61.485,9.435 C61.315,9.765 61.04,10.045 60.66,10.275 C60.28,10.505 59.82,10.62 59.28,10.62 C58.8,10.62 58.3575,10.5325 57.9525,10.3575 C57.5475,10.1825 57.1975,9.9425 56.9025,9.6375 C56.6075,9.3325 56.3775,8.965 56.2125,8.535 C56.0475,8.105 55.965,7.635 55.965,7.125 C55.965,6.635 56.045,6.1775 56.205,5.7525 C56.365,5.3275 56.59,4.9575 56.88,4.6425 C57.17,4.3275 57.5175,4.0775 57.9225,3.8925 C58.3275,3.7075 58.78,3.615 59.28,3.615 C59.84,3.615 60.305,3.715 60.675,3.915 C61.045,4.115 61.32,4.395 61.5,4.755 L61.5,3.75 L62.895,3.75 L62.895,10.425 C62.895,10.885 62.835,11.3325 62.715,11.7675 C62.595,12.2025 62.3925,12.5875 62.1075,12.9225 C61.8225,13.2575 61.45,13.5275 60.99,13.7325 C60.53,13.9375 59.96,14.04 59.28,14.04 C58.83,14.04 58.4125,13.9725 58.0275,13.8375 C57.6425,13.7025 57.3025,13.515 57.0075,13.275 C56.7125,13.035 56.4725,12.7525 56.2875,12.4275 C56.1025,12.1025 55.99,11.745 55.95,11.355 L57.315,11.04 Z M59.49,9.435 C60.1,9.435 60.595,9.225 60.975,8.805 C61.355,8.385 61.545,7.825 61.545,7.125 C61.545,6.425 61.355,5.865 60.975,5.445 C60.595,5.025 60.1,4.815 59.49,4.815 C58.86,4.815 58.355,5.025 57.975,5.445 C57.595,5.865 57.405,6.425 57.405,7.125 C57.405,7.835 57.5925,8.3975 57.9675,8.8125 C58.3425,9.2275 58.85,9.435 59.49,9.435 Z" id="Shape"></path>
                    <path d="M5.385,26.19 C4.695,26.19 4.0325,26.0675 3.3975,25.8225 C2.7625,25.5775 2.2025,25.22 1.7175,24.75 C1.2325,24.28 0.8425,23.7 0.5475,23.01 C0.2525,22.32 0.105,21.53 0.105,20.64 C0.105,19.75 0.255,18.9625 0.555,18.2775 C0.855,17.5925 1.2525,17.015 1.7475,16.545 C2.2425,16.075 2.8075,15.7175 3.4425,15.4725 C4.0775,15.2275 4.725,15.105 5.385,15.105 C5.995,15.105 6.555,15.185 7.065,15.345 C7.575,15.505 8.03,15.73 8.43,16.02 C8.83,16.31 9.1675,16.665 9.4425,17.085 C9.7175,17.505 9.925,17.97 10.065,18.48 L8.7,18.96 C8.5,18.15 8.1175,17.53 7.5525,17.1 C6.9875,16.67 6.265,16.455 5.385,16.455 C4.905,16.455 4.4375,16.5425 3.9825,16.7175 C3.5275,16.8925 3.1225,17.155 2.7675,17.505 C2.4125,17.855 2.13,18.2925 1.92,18.8175 C1.71,19.3425 1.605,19.95 1.605,20.64 C1.605,21.33 1.71,21.9375 1.92,22.4625 C2.13,22.9875 2.4125,23.4275 2.7675,23.7825 C3.1225,24.1375 3.5275,24.4025 3.9825,24.5775 C4.4375,24.7525 4.905,24.84 5.385,24.84 C5.835,24.84 6.245,24.775 6.615,24.645 C6.985,24.515 7.3125,24.3375 7.5975,24.1125 C7.8825,23.8875 8.1225,23.6175 8.3175,23.3025 C8.5125,22.9875 8.665,22.65 8.775,22.29 L10.08,22.77 C9.94,23.27 9.73,23.73 9.45,24.15 C9.17,24.57 8.8325,24.93 8.4375,25.23 C8.0425,25.53 7.5875,25.765 7.0725,25.935 C6.5575,26.105 5.995,26.19 5.385,26.19 Z" id="Path"></path>
                    <path d="M11.13,24.03 C11.13,23.71 11.185,23.4225 11.295,23.1675 C11.405,22.9125 11.5575,22.695 11.7525,22.515 C11.9475,22.335 12.18,22.19 12.45,22.08 C12.72,21.97 13.01,21.89 13.32,21.84 L15.27,21.555 C15.49,21.525 15.6375,21.46 15.7125,21.36 C15.7875,21.26 15.825,21.145 15.825,21.015 C15.825,20.665 15.7025,20.3625 15.4575,20.1075 C15.2125,19.8525 14.815,19.725 14.265,19.725 C13.765,19.725 13.38,19.8625 13.11,20.1375 C12.84,20.4125 12.68,20.76 12.63,21.18 L11.28,20.865 C11.32,20.525 11.4225,20.21 11.5875,19.92 C11.7525,19.63 11.965,19.3825 12.225,19.1775 C12.485,18.9725 12.7875,18.8125 13.1325,18.6975 C13.4775,18.5825 13.845,18.525 14.235,18.525 C14.775,18.525 15.235,18.5975 15.615,18.7425 C15.995,18.8875 16.305,19.08 16.545,19.32 C16.785,19.56 16.96,19.84 17.07,20.16 C17.18,20.48 17.235,20.815 17.235,21.165 L17.235,24.78 C17.235,25.1 17.245,25.355 17.265,25.545 C17.285,25.735 17.305,25.875 17.325,25.965 L15.945,25.965 C15.925,25.875 15.9075,25.755 15.8925,25.605 C15.8775,25.455 15.87,25.25 15.87,24.99 C15.79,25.12 15.685,25.255 15.555,25.395 C15.425,25.535 15.265,25.665 15.075,25.785 C14.885,25.905 14.6625,26.0025 14.4075,26.0775 C14.1525,26.1525 13.865,26.19 13.545,26.19 C13.175,26.19 12.8425,26.13 12.5475,26.01 C12.2525,25.89 12,25.7325 11.79,25.5375 C11.58,25.3425 11.4175,25.115 11.3025,24.855 C11.1875,24.595 11.13,24.32 11.13,24.03 Z M13.74,25.005 C14.03,25.005 14.3025,24.9675 14.5575,24.8925 C14.8125,24.8175 15.0325,24.6975 15.2175,24.5325 C15.4025,24.3675 15.55,24.1475 15.66,23.8725 C15.77,23.5975 15.825,23.265 15.825,22.875 L15.825,22.545 L13.62,22.875 C13.32,22.925 13.07,23.0375 12.87,23.2125 C12.67,23.3875 12.57,23.635 12.57,23.955 C12.57,24.225 12.675,24.4675 12.885,24.6825 C13.095,24.8975 13.38,25.005 13.74,25.005 Z" id="Shape"></path>
                    <path d="M23.43,20.175 C23.22,20.145 23.015,20.13 22.815,20.13 C22.225,20.13 21.7475,20.3025 21.3825,20.6475 C21.0175,20.9925 20.835,21.56 20.835,22.35 L20.835,25.965 L19.425,25.965 L19.425,18.75 L20.805,18.75 L20.805,20.01 C20.935,19.73 21.0875,19.5025 21.2625,19.3275 C21.4375,19.1525 21.62,19.0125 21.81,18.9075 C22,18.8025 22.195,18.73 22.395,18.69 C22.595,18.65 22.785,18.63 22.965,18.63 C23.065,18.63 23.1575,18.635 23.2425,18.645 C23.3275,18.655 23.39,18.665 23.43,18.675 L23.43,20.175 Z" id="Path"></path>
                    <path d="M27.195,18.75 L28.755,18.75 L28.755,20.025 L27.195,20.025 L27.195,23.775 C27.195,24.105 27.27,24.3525 27.42,24.5175 C27.57,24.6825 27.83,24.765 28.2,24.765 C28.29,24.765 28.39,24.76 28.5,24.75 C28.61,24.74 28.695,24.725 28.755,24.705 L28.755,25.905 C28.695,25.925 28.58,25.9525 28.41,25.9875 C28.24,26.0225 28.035,26.04 27.795,26.04 C27.175,26.04 26.685,25.8625 26.325,25.5075 C25.965,25.1525 25.785,24.645 25.785,23.985 L25.785,20.025 L24.405,20.025 L24.405,18.75 L24.795,18.75 C25.185,18.75 25.4675,18.645 25.6425,18.435 C25.8175,18.225 25.905,17.96 25.905,17.64 L25.905,16.47 L27.195,16.47 L27.195,18.75 Z" id="Path"></path>
                </g>
            </g>
        </g>
    </g>
</svg>